<mxfile host="app.diagrams.net" modified="2023-12-03T14:43:30.456Z" agent="Mozilla/5.0 (Windows NT 10.0; Win64; x64) AppleWebKit/537.36 (KHTML, like Gecko) Chrome/119.0.0.0 Safari/537.36" etag="LleTDycmLJHPwLFsu8z4" version="22.1.5" type="device">
  <diagram name="Page-1" id="g1CrJk_TjEuLSHqQvV5w">
    <mxGraphModel dx="1434" dy="738" grid="1" gridSize="10" guides="1" tooltips="1" connect="1" arrows="1" fold="1" page="1" pageScale="1" pageWidth="850" pageHeight="1100" math="0" shadow="0">
      <root>
        <mxCell id="0" />
        <mxCell id="1" parent="0" />
        <mxCell id="HIHVnT60K8b-5XNrwjL4-62" value="" style="group;fontSize=20;" vertex="1" connectable="0" parent="1">
          <mxGeometry x="10" y="10" width="816.67" height="350" as="geometry" />
        </mxCell>
        <mxCell id="HIHVnT60K8b-5XNrwjL4-1" value="(1, 3)" style="rounded=0;whiteSpace=wrap;html=1;fontSize=20;" vertex="1" parent="HIHVnT60K8b-5XNrwjL4-62">
          <mxGeometry x="447.2240476190476" y="68.05555555555556" width="77.77809523809523" height="58.333333333333336" as="geometry" />
        </mxCell>
        <mxCell id="HIHVnT60K8b-5XNrwjL4-2" value="(3, 1)" style="rounded=0;whiteSpace=wrap;html=1;fontSize=20;" vertex="1" parent="HIHVnT60K8b-5XNrwjL4-62">
          <mxGeometry x="447.2240476190476" y="126.38888888888889" width="77.77809523809523" height="58.333333333333336" as="geometry" />
        </mxCell>
        <mxCell id="HIHVnT60K8b-5XNrwjL4-3" value="(2, 1)" style="rounded=0;whiteSpace=wrap;html=1;fontSize=20;" vertex="1" parent="HIHVnT60K8b-5XNrwjL4-62">
          <mxGeometry x="447.2240476190476" y="184.72222222222223" width="77.77809523809523" height="58.333333333333336" as="geometry" />
        </mxCell>
        <mxCell id="HIHVnT60K8b-5XNrwjL4-4" value="0" style="rounded=0;whiteSpace=wrap;html=1;fontSize=20;" vertex="1" parent="HIHVnT60K8b-5XNrwjL4-62">
          <mxGeometry x="155.55619047619047" y="97.22222222222221" width="38.889047619047616" height="38.888888888888886" as="geometry" />
        </mxCell>
        <mxCell id="HIHVnT60K8b-5XNrwjL4-5" value="I" style="rounded=0;whiteSpace=wrap;html=1;fontSize=20;" vertex="1" parent="HIHVnT60K8b-5XNrwjL4-62">
          <mxGeometry x="155.55619047619047" y="136.11111111111111" width="38.889047619047616" height="38.888888888888886" as="geometry" />
        </mxCell>
        <mxCell id="HIHVnT60K8b-5XNrwjL4-6" value="I" style="rounded=0;whiteSpace=wrap;html=1;fontSize=20;" vertex="1" parent="HIHVnT60K8b-5XNrwjL4-62">
          <mxGeometry x="155.55619047619047" y="175" width="38.889047619047616" height="38.888888888888886" as="geometry" />
        </mxCell>
        <mxCell id="HIHVnT60K8b-5XNrwjL4-8" value="0" style="rounded=0;whiteSpace=wrap;html=1;fontSize=20;" vertex="1" parent="HIHVnT60K8b-5XNrwjL4-62">
          <mxGeometry x="194.4452380952381" y="97.22222222222221" width="38.889047619047616" height="38.888888888888886" as="geometry" />
        </mxCell>
        <mxCell id="HIHVnT60K8b-5XNrwjL4-9" value="0" style="rounded=0;whiteSpace=wrap;html=1;fontSize=20;" vertex="1" parent="HIHVnT60K8b-5XNrwjL4-62">
          <mxGeometry x="194.4452380952381" y="136.11111111111111" width="38.889047619047616" height="38.888888888888886" as="geometry" />
        </mxCell>
        <mxCell id="HIHVnT60K8b-5XNrwjL4-10" value="0" style="rounded=0;whiteSpace=wrap;html=1;fontSize=20;" vertex="1" parent="HIHVnT60K8b-5XNrwjL4-62">
          <mxGeometry x="194.4452380952381" y="175" width="38.889047619047616" height="38.888888888888886" as="geometry" />
        </mxCell>
        <mxCell id="HIHVnT60K8b-5XNrwjL4-11" value="I" style="rounded=0;whiteSpace=wrap;html=1;fontSize=20;" vertex="1" parent="HIHVnT60K8b-5XNrwjL4-62">
          <mxGeometry x="233.3342857142857" y="97.22222222222221" width="38.889047619047616" height="38.888888888888886" as="geometry" />
        </mxCell>
        <mxCell id="HIHVnT60K8b-5XNrwjL4-12" value="0" style="rounded=0;whiteSpace=wrap;html=1;fontSize=20;" vertex="1" parent="HIHVnT60K8b-5XNrwjL4-62">
          <mxGeometry x="233.3342857142857" y="136.11111111111111" width="38.889047619047616" height="38.888888888888886" as="geometry" />
        </mxCell>
        <mxCell id="HIHVnT60K8b-5XNrwjL4-13" value="0" style="rounded=0;whiteSpace=wrap;html=1;fontSize=20;" vertex="1" parent="HIHVnT60K8b-5XNrwjL4-62">
          <mxGeometry x="233.3342857142857" y="175" width="38.889047619047616" height="38.888888888888886" as="geometry" />
        </mxCell>
        <mxCell id="HIHVnT60K8b-5XNrwjL4-14" value="1" style="text;html=1;align=center;verticalAlign=middle;resizable=0;points=[];autosize=1;strokeColor=none;fillColor=none;fontSize=20;" vertex="1" parent="HIHVnT60K8b-5XNrwjL4-62">
          <mxGeometry x="120.00261904761905" y="97.22" width="30" height="40" as="geometry" />
        </mxCell>
        <mxCell id="HIHVnT60K8b-5XNrwjL4-15" value="2" style="text;html=1;align=center;verticalAlign=middle;resizable=0;points=[];autosize=1;strokeColor=none;fillColor=none;fontSize=20;" vertex="1" parent="HIHVnT60K8b-5XNrwjL4-62">
          <mxGeometry x="120.00261904761905" y="134.99888888888887" width="30" height="40" as="geometry" />
        </mxCell>
        <mxCell id="HIHVnT60K8b-5XNrwjL4-16" value="&lt;font style=&quot;font-size: 20px;&quot;&gt;Reachabilitymatrix&lt;/font&gt;" style="text;html=1;align=center;verticalAlign=middle;resizable=0;points=[];autosize=1;strokeColor=none;fillColor=none;fontSize=20;fontStyle=1" vertex="1" parent="HIHVnT60K8b-5XNrwjL4-62">
          <mxGeometry x="105.00488095238094" width="200" height="40" as="geometry" />
        </mxCell>
        <mxCell id="HIHVnT60K8b-5XNrwjL4-17" value="3" style="text;html=1;align=center;verticalAlign=middle;resizable=0;points=[];autosize=1;strokeColor=none;fillColor=none;fontSize=20;" vertex="1" parent="HIHVnT60K8b-5XNrwjL4-62">
          <mxGeometry x="120.00261904761905" y="173.88777777777779" width="30" height="40" as="geometry" />
        </mxCell>
        <mxCell id="HIHVnT60K8b-5XNrwjL4-21" value="1" style="text;html=1;align=center;verticalAlign=middle;resizable=0;points=[];autosize=1;strokeColor=none;fillColor=none;fontSize=20;" vertex="1" parent="HIHVnT60K8b-5XNrwjL4-62">
          <mxGeometry x="155.55166666666665" y="57.218888888888884" width="30" height="40" as="geometry" />
        </mxCell>
        <mxCell id="HIHVnT60K8b-5XNrwjL4-22" value="2" style="text;html=1;align=center;verticalAlign=middle;resizable=0;points=[];autosize=1;strokeColor=none;fillColor=none;fontSize=20;" vertex="1" parent="HIHVnT60K8b-5XNrwjL4-62">
          <mxGeometry x="198.89297619047616" y="57.218888888888884" width="30" height="40" as="geometry" />
        </mxCell>
        <mxCell id="HIHVnT60K8b-5XNrwjL4-23" value="3" style="text;html=1;align=center;verticalAlign=middle;resizable=0;points=[];autosize=1;strokeColor=none;fillColor=none;fontSize=20;" vertex="1" parent="HIHVnT60K8b-5XNrwjL4-62">
          <mxGeometry x="237.7820238095238" y="57.218888888888884" width="30" height="40" as="geometry" />
        </mxCell>
        <mxCell id="HIHVnT60K8b-5XNrwjL4-24" value="[(1, 5), (1,4)]" style="rounded=0;whiteSpace=wrap;html=1;fontSize=20;" vertex="1" parent="HIHVnT60K8b-5XNrwjL4-62">
          <mxGeometry x="622.2247619047619" y="29.166666666666668" width="194.4452380952381" height="58.333333333333336" as="geometry" />
        </mxCell>
        <mxCell id="HIHVnT60K8b-5XNrwjL4-25" value="[(1, 3)]" style="rounded=0;whiteSpace=wrap;html=1;fontSize=20;" vertex="1" parent="HIHVnT60K8b-5XNrwjL4-62">
          <mxGeometry x="622.2247619047619" y="126.38888888888889" width="194.4452380952381" height="58.333333333333336" as="geometry" />
        </mxCell>
        <mxCell id="HIHVnT60K8b-5XNrwjL4-26" value="[(2, 3)]" style="rounded=0;whiteSpace=wrap;html=1;fontSize=20;" vertex="1" parent="HIHVnT60K8b-5XNrwjL4-62">
          <mxGeometry x="622.2247619047619" y="213.88888888888889" width="194.4452380952381" height="58.333333333333336" as="geometry" />
        </mxCell>
        <mxCell id="HIHVnT60K8b-5XNrwjL4-28" value="" style="endArrow=classic;html=1;rounded=0;exitX=1;exitY=0.5;exitDx=0;exitDy=0;entryX=0;entryY=0.5;entryDx=0;entryDy=0;fontSize=20;" edge="1" parent="HIHVnT60K8b-5XNrwjL4-62" source="HIHVnT60K8b-5XNrwjL4-1" target="HIHVnT60K8b-5XNrwjL4-24">
          <mxGeometry width="50" height="50" relative="1" as="geometry">
            <mxPoint x="661.1138095238094" y="350" as="sourcePoint" />
            <mxPoint x="758.3364285714285" y="252.77777777777777" as="targetPoint" />
          </mxGeometry>
        </mxCell>
        <mxCell id="HIHVnT60K8b-5XNrwjL4-29" value="" style="endArrow=classic;html=1;rounded=0;exitX=1;exitY=0.5;exitDx=0;exitDy=0;entryX=0;entryY=0.5;entryDx=0;entryDy=0;fontSize=20;" edge="1" parent="HIHVnT60K8b-5XNrwjL4-62" source="HIHVnT60K8b-5XNrwjL4-2" target="HIHVnT60K8b-5XNrwjL4-25">
          <mxGeometry width="50" height="50" relative="1" as="geometry">
            <mxPoint x="544.4466666666666" y="116.66666666666667" as="sourcePoint" />
            <mxPoint x="641.6692857142857" y="87.5" as="targetPoint" />
          </mxGeometry>
        </mxCell>
        <mxCell id="HIHVnT60K8b-5XNrwjL4-30" value="" style="endArrow=classic;html=1;rounded=0;exitX=1;exitY=0.5;exitDx=0;exitDy=0;entryX=0;entryY=0.5;entryDx=0;entryDy=0;fontSize=20;" edge="1" parent="HIHVnT60K8b-5XNrwjL4-62" target="HIHVnT60K8b-5XNrwjL4-26">
          <mxGeometry width="50" height="50" relative="1" as="geometry">
            <mxPoint x="525.0021428571429" y="213.88888888888889" as="sourcePoint" />
            <mxPoint x="622.2247619047619" y="213.88888888888889" as="targetPoint" />
          </mxGeometry>
        </mxCell>
        <mxCell id="HIHVnT60K8b-5XNrwjL4-31" value="&lt;b style=&quot;font-size: 20px;&quot;&gt;resp_pols&lt;/b&gt;" style="text;html=1;align=center;verticalAlign=middle;resizable=0;points=[];autosize=1;strokeColor=none;fillColor=none;fontSize=20;" vertex="1" parent="HIHVnT60K8b-5XNrwjL4-62">
          <mxGeometry x="426.115" y="0.0022222222222216814" width="120" height="40" as="geometry" />
        </mxCell>
        <mxCell id="HIHVnT60K8b-5XNrwjL4-32" value="&lt;b&gt;dict_pods&lt;/b&gt;: {1: a, 2:b, 3:c}" style="text;html=1;align=center;verticalAlign=middle;resizable=0;points=[];autosize=1;strokeColor=none;fillColor=none;fontSize=20;" vertex="1" parent="HIHVnT60K8b-5XNrwjL4-62">
          <mxGeometry x="11.939999999999998" y="243.05555555555554" width="250" height="40" as="geometry" />
        </mxCell>
        <mxCell id="HIHVnT60K8b-5XNrwjL4-33" value="&lt;b&gt;dict_pols&lt;/b&gt;: {1: u, 2:v, 3:w, 4:x, 5:y, 6:z}" style="text;html=1;align=center;verticalAlign=middle;resizable=0;points=[];autosize=1;strokeColor=none;fillColor=none;fontSize=20;" vertex="1" parent="HIHVnT60K8b-5XNrwjL4-62">
          <mxGeometry x="11.939999999999998" y="289.99666666666667" width="360" height="40" as="geometry" />
        </mxCell>
      </root>
    </mxGraphModel>
  </diagram>
</mxfile>
